<?xml version="1.0" standalone="no"?>
<!DOCTYPE svg PUBLIC "-//W3C//DTD SVG 20010904//EN"
 "http://www.w3.org/TR/2001/REC-SVG-20010904/DTD/svg10.dtd">
<svg version="1.0" xmlns="http://www.w3.org/2000/svg"
 width="120.000000pt" height="120.000000pt" viewBox="0 0 120.000000 120.000000"
 preserveAspectRatio="xMidYMid meet">

<g transform="translate(0.000000,120.000000) scale(0.100000,-0.100000)"
fill="#000000" stroke="none">
<path d="M525 1180 c-102 -5 -129 -10 -180 -33 -68 -32 -155 -88 -155 -101 0
-5 -20 -26 -45 -48 -45 -40 -63 -64 -70 -96 -2 -9 -15 -44 -29 -78 -37 -88
-50 -186 -37 -278 11 -81 46 -176 81 -226 12 -16 18 -35 14 -41 -4 -8 -3 -9 4
-5 7 4 12 1 12 -8 0 -27 123 -126 209 -169 l85 -42 126 3 c98 2 132 0 156 -12
31 -17 124 -22 124 -8 0 5 -18 15 -40 22 -22 7 -40 16 -40 19 0 11 107 53 127
50 31 -5 86 12 126 37 42 27 48 44 15 44 -21 0 -21 0 -2 23 10 12 4 9 -14 -7
-44 -40 -54 -24 -11 20 18 19 35 30 37 25 6 -19 122 64 122 88 0 6 -13 6 -36
-1 -20 -5 -38 -7 -40 -5 -11 11 33 96 71 138 62 66 75 121 21 85 -14 -9 -28
-16 -31 -16 -3 0 -5 24 -5 53 0 135 -56 285 -140 380 -87 99 -256 195 -318
181 -21 -4 -24 -3 -12 5 8 6 11 10 5 9 -5 -1 -64 -4 -130 -8z m218 -54 c135
-51 239 -142 298 -263 l31 -61 -17 -76 c-14 -62 -15 -85 -6 -121 6 -24 8 -51
4 -61 -5 -13 -12 -5 -29 34 -26 59 -40 65 -49 23 -8 -36 2 -92 25 -146 17 -40
17 -41 -8 -95 l-25 -55 -8 60 c-11 101 -30 123 -48 57 -13 -46 -13 -95 -1
-147 10 -40 10 -40 -42 -88 -28 -26 -55 -47 -59 -47 -4 0 3 19 16 43 26 45 33
87 13 87 -20 0 -85 -77 -104 -124 -23 -56 -49 -66 -175 -66 -146 0 -270 51
-374 155 -106 106 -155 227 -155 383 0 252 167 466 413 528 80 21 217 11 300
-20z m342 -595 c-16 -15 -17 -14 -10 19 13 67 20 78 23 36 2 -27 -2 -44 -13
-55z m-15 -98 c-1 -18 -47 -97 -59 -101 -10 -3 -10 0 -3 14 5 11 17 36 25 57
14 32 38 52 37 30z"/>
<path d="M293 861 c-29 -8 -53 -19 -53 -23 0 -16 96 -88 126 -94 20 -4 63 1
104 11 38 9 77 15 85 11 29 -11 -28 54 -74 85 -52 34 -103 37 -188 10z"/>
<path d="M675 822 c-22 -11 -49 -29 -59 -41 -17 -19 -18 -21 -2 -21 10 0 36
-11 59 -24 23 -13 59 -29 80 -36 34 -11 43 -9 92 15 30 14 55 30 55 35 0 13
-121 79 -156 85 -18 3 -45 -2 -69 -13z"/>
<path d="M539 629 c-6 -24 -11 -73 -11 -108 0 -62 -1 -63 -34 -77 -18 -8 -49
-14 -69 -14 -28 0 -44 -9 -81 -45 -25 -25 -49 -45 -55 -45 -5 0 -9 -4 -9 -10
0 -6 102 -10 285 -10 163 0 285 4 285 9 0 5 -29 24 -64 41 -46 24 -68 41 -77
62 -17 42 -61 62 -121 54 l-48 -7 0 53 c0 29 5 71 10 93 12 54 4 57 -11 4z"/>
<path d="M243 1127 c-45 -24 -80 -54 -133 -112 -43 -48 -14 -28 60 41 31 28
70 59 88 68 18 9 32 19 32 21 0 7 -1 7 -47 -18z"/>
</g>
</svg>
