<?xml version="1.0" standalone="no"?>
<!DOCTYPE svg PUBLIC "-//W3C//DTD SVG 20010904//EN"
 "http://www.w3.org/TR/2001/REC-SVG-20010904/DTD/svg10.dtd">
<svg version="1.0" xmlns="http://www.w3.org/2000/svg"
 width="120.000000pt" height="120.000000pt" viewBox="0 0 120.000000 120.000000"
 preserveAspectRatio="xMidYMid meet">

<g transform="translate(0.000000,120.000000) scale(0.100000,-0.100000)"
fill="#000000" stroke="none">
<path d="M503 1190 c-171 -31 -333 -141 -416 -283 -37 -62 -74 -180 -82 -257
-18 -185 78 -403 227 -515 82 -62 124 -82 215 -106 208 -53 418 5 568 155 186
188 227 460 105 696 -73 138 -219 256 -365 294 -80 20 -187 27 -252 16z m242
-34 c125 -33 264 -136 336 -248 109 -169 117 -389 22 -572 -74 -142 -241 -268
-392 -296 -219 -41 -436 41 -568 215 -82 108 -118 216 -117 356 2 274 204 510
477 559 62 11 173 5 242 -14z"/>
<path d="M562 787 c-18 -18 -32 -41 -32 -50 0 -9 -4 -17 -10 -17 -5 0 -21 -20
-36 -45 -14 -25 -31 -45 -36 -45 -6 0 -26 -16 -45 -36 l-34 -37 -29 28 -28 27
-17 -26 c-10 -14 -28 -29 -40 -32 -13 -3 -36 -20 -51 -37 -16 -17 -22 -27 -14
-21 8 6 28 11 45 12 43 3 85 25 85 44 0 10 4 18 9 18 14 0 33 -28 26 -40 -8
-13 14 -13 70 2 40 11 49 10 90 -10 25 -12 48 -22 52 -22 14 0 -45 54 -86 77
-35 21 -40 28 -27 35 9 5 23 22 31 37 8 16 34 50 59 76 42 45 44 47 55 27 16
-29 14 -42 -6 -42 -17 0 -73 -47 -73 -62 0 -4 9 -8 20 -8 10 0 24 -8 29 -18 6
-10 41 -34 78 -52 37 -18 78 -42 91 -53 13 -12 22 -16 22 -8 0 7 5 9 10 6 6
-3 10 -16 10 -28 1 -20 2 -20 11 -4 13 23 22 22 58 -9 55 -46 33 -8 -38 64
-38 39 -81 93 -96 120 -15 28 -38 56 -52 63 -14 7 -35 33 -47 56 l-22 43 -32
-33z m151 -160 c9 -12 29 -34 44 -49 51 -54 -11 -24 -74 35 -18 17 -33 35 -33
40 0 15 44 -4 63 -26z"/>
<path d="M834 706 c-3 -8 -14 -18 -24 -21 -10 -3 -25 -17 -34 -30 -16 -24 -15
-25 4 -25 11 0 20 6 20 14 0 7 11 21 24 30 29 18 41 7 32 -29 -5 -20 -2 -24
21 -27 20 -2 29 -10 33 -28 3 -17 12 -25 25 -25 14 0 21 -8 23 -24 3 -17 6
-20 12 -11 6 10 16 10 50 -4 23 -9 44 -15 47 -13 2 2 -10 10 -27 17 -16 7 -44
29 -62 50 -38 43 -50 55 -101 105 -29 29 -38 33 -43 21z"/>
<path d="M276 489 c-49 -8 -170 -49 -163 -55 1 -2 27 3 57 11 116 31 349 16
552 -35 112 -29 220 -27 285 5 28 15 57 33 64 41 7 8 -12 3 -42 -12 -74 -38
-169 -37 -294 0 -164 49 -337 66 -459 45z"/>
</g>
</svg>
