<?xml version="1.0" standalone="no"?>
<!DOCTYPE svg PUBLIC "-//W3C//DTD SVG 20010904//EN"
 "http://www.w3.org/TR/2001/REC-SVG-20010904/DTD/svg10.dtd">
<svg version="1.0" xmlns="http://www.w3.org/2000/svg"
 width="150.000000pt" height="120.000000pt" viewBox="0 0 150.000000 120.000000"
 preserveAspectRatio="xMidYMid meet">

<g transform="translate(0.000000,120.000000) scale(0.100000,-0.100000)"
fill="#000000" stroke="none">
<path d="M626 1155 c-228 -80 -376 -287 -376 -527 0 -43 -3 -78 -7 -78 -4 0
-26 21 -50 47 l-43 48 38 -60 c21 -33 56 -100 77 -150 21 -49 54 -114 72 -143
18 -29 33 -56 33 -61 0 -18 43 -61 58 -59 10 2 16 -2 15 -9 -3 -12 71 -70 117
-93 23 -11 22 -9 -5 15 -33 29 -29 29 60 -8 76 -31 198 -51 273 -44 76 7 173
47 247 102 63 47 145 140 145 164 0 8 11 38 25 67 43 91 58 176 51 293 -3 57
-10 109 -15 115 -4 6 -9 34 -9 63 0 29 -6 61 -12 72 -9 18 -58 61 -192 168
-50 40 -174 81 -283 94 -117 13 -142 11 -219 -16z m361 -37 c57 -21 173 -94
173 -109 0 -5 -9 -9 -20 -9 -11 0 -20 -6 -20 -14 0 -26 31 -100 55 -132 14
-18 25 -37 25 -43 0 -6 5 -11 10 -11 17 0 11 -21 -14 -51 -36 -42 -44 -110
-18 -146 17 -23 28 -28 63 -28 41 0 43 -1 46 -32 1 -17 -3 -72 -11 -121 -11
-77 -18 -98 -50 -141 -36 -49 -91 -98 -147 -133 -34 -21 -155 -51 -180 -45
-10 3 -22 1 -25 -4 -3 -5 -47 -9 -97 -9 -51 0 -103 0 -116 0 -14 0 -59 17
-100 37 -102 51 -191 139 -237 236 -38 81 -56 151 -33 130 18 -18 34 -16 19 2
-7 8 -19 15 -26 15 -8 0 -14 5 -14 10 0 13 6 13 30 0 25 -14 32 19 8 42 -11
11 -18 13 -18 6 0 -8 -3 -9 -10 -2 -11 11 -1 124 11 124 5 0 6 14 2 30 -4 22
-1 34 11 43 9 7 18 33 22 61 6 53 46 126 69 126 8 0 12 6 9 14 -8 21 85 92
151 115 33 12 60 21 61 21 1 0 0 -9 -3 -19 -4 -15 -17 -21 -54 -26 -51 -7
-109 -44 -109 -70 0 -7 -7 -18 -15 -25 -29 -24 -15 -32 19 -11 18 12 38 21 44
21 14 0 26 -48 23 -95 -2 -44 36 -130 59 -130 7 0 18 -9 24 -20 16 -28 37 -43
71 -51 35 -8 60 -21 98 -51 15 -12 34 -20 41 -17 24 9 26 -27 4 -66 l-23 -38
24 -44 c13 -24 34 -54 47 -68 25 -27 25 -31 -2 -189 -5 -32 -3 -45 7 -52 22
-14 29 -11 29 12 0 12 18 36 42 57 86 75 178 166 178 176 0 6 9 22 20 36 29
38 25 49 -29 72 -35 14 -51 27 -55 44 -4 14 -16 26 -31 30 -14 3 -31 14 -38
23 -17 23 -103 44 -127 31 -33 -18 -70 -12 -70 10 0 12 -10 24 -24 30 -18 7
-23 14 -19 29 4 15 1 21 -11 21 -9 0 -16 -5 -16 -11 0 -6 -10 -9 -22 -7 -18 2
-23 10 -23 33 0 24 7 34 37 50 l37 20 27 -25 26 -25 -7 23 c-9 30 28 109 58
123 12 5 32 16 44 23 23 13 23 13 -18 47 -22 19 -45 36 -50 37 -5 2 -9 14 -9
27 0 24 -18 43 -59 62 -14 6 -20 12 -13 12 23 2 74 -30 112 -70 41 -43 65 -51
55 -19 -4 12 -1 27 5 35 10 12 3 20 -39 46 -28 18 -51 34 -51 36 0 11 112 -2
157 -19z m-217 -67 c0 -17 -18 -21 -24 -6 -3 9 0 15 9 15 8 0 15 -4 15 -9z
m-10 -41 c11 -11 20 -27 20 -35 0 -19 -27 -19 -46 -1 -7 8 -19 16 -26 18 -10
4 -10 8 1 21 18 22 27 21 51 -3z m-90 -16 c0 -10 -7 -14 -22 -12 -32 5 -35 28
-4 28 17 0 26 -5 26 -16z m60 -34 c0 -5 -4 -10 -10 -10 -5 0 -10 5 -10 10 0 6
5 10 10 10 6 0 10 -4 10 -10z m580 -200 c0 -5 -2 -10 -4 -10 -3 0 -8 5 -11 10
-3 6 -1 10 4 10 6 0 11 -4 11 -10z"/>
<path d="M965 1020 c3 -5 13 -10 21 -10 8 0 12 5 9 10 -3 6 -13 10 -21 10 -8
0 -12 -4 -9 -10z"/>
<path d="M790 730 c8 -5 22 -9 30 -9 10 0 8 3 -5 9 -27 12 -43 12 -25 0z"/>
<path d="M878 693 c7 -3 16 -2 19 1 4 3 -2 6 -13 5 -11 0 -14 -3 -6 -6z"/>
<path d="M301 650 c0 -8 6 -26 15 -40 l15 -25 -7 25 c-3 14 -10 32 -15 40 -7
13 -8 13 -8 0z"/>
<path d="M447 545 c-15 -31 -20 -35 -44 -29 -16 4 -33 11 -40 16 -7 6 -14 5
-18 -2 -8 -13 -9 -12 28 -28 34 -15 33 -45 -1 -50 -12 -2 -29 -14 -38 -27 -13
-21 -13 -27 0 -57 22 -49 52 -79 70 -72 12 5 15 2 10 -11 -5 -13 -3 -16 7 -13
8 3 21 -1 30 -9 14 -11 18 -11 28 0 6 8 13 28 15 44 1 17 6 35 10 42 4 6 11
34 15 63 9 53 -5 105 -41 151 -13 17 -15 16 -31 -18z"/>
<path d="M551 264 c-13 -13 -21 -24 -17 -24 12 0 56 32 56 41 0 14 -13 9 -39
-17z"/>
<path d="M426 1085 c-31 -25 -61 -56 -67 -68 -7 -12 15 2 47 32 32 30 66 60
74 68 35 32 -3 9 -54 -32z"/>
<path d="M1431 932 c-45 -23 -71 -59 -78 -110 -5 -36 -3 -42 12 -42 25 0 82
46 100 80 16 30 21 90 8 90 -5 0 -23 -8 -42 -18z"/>
<path d="M80 776 c0 -42 19 -78 21 -39 0 10 3 13 6 6 8 -21 23 -15 23 10 0 25
-26 67 -41 67 -5 0 -9 -20 -9 -44z"/>
<path d="M97 468 c15 -56 65 -94 115 -86 21 4 20 6 -14 23 -48 24 -50 39 -3
19 49 -20 52 -18 20 16 -15 16 -42 32 -59 35 -17 4 -39 9 -48 11 -13 4 -15 0
-11 -18z"/>
</g>
</svg>
